<svg width="842" height="596" viewBox="0 0 842 596" fill="none" xmlns="http://www.w3.org/2000/svg">
<circle cx="421.3" cy="298.3" r="245.3" fill="#05445E"/>
<path d="M313.64 357.04C281.84 357.04 262.28 334.6 262.28 308.44C262.28 282.16 281.72 259.96 313.64 259.96C345.68 259.96 365.12 282.16 365.12 308.44C365.12 334.6 345.56 357.04 313.64 357.04ZM281.72 308.44C281.72 337 294.68 354.4 313.64 354.4C332.72 354.4 345.68 337 345.68 308.44C345.68 279.76 332.84 262.48 313.64 262.48C294.56 262.48 281.72 279.76 281.72 308.44ZM427.703 357.04C397.823 357.04 379.223 334.6 379.223 308.56C379.223 282.28 398.183 259.96 429.743 259.96C445.583 259.96 459.383 265.48 471.503 277.36C470.903 281.8 468.143 285.4 463.343 285.4C459.023 285.4 456.743 282.16 454.703 278.44C449.423 270.28 440.303 262.36 429.263 262.36C410.183 262.36 397.343 280.72 397.343 303.88C397.343 332.32 414.743 348.88 435.863 348.88C454.223 348.88 469.103 336.04 472.583 314.68H474.623C470.903 342.28 450.503 357.04 427.703 357.04ZM532.575 357.04C502.695 357.04 484.095 334.6 484.095 308.56C484.095 282.28 503.055 259.96 534.615 259.96C550.455 259.96 564.255 265.48 576.375 277.36C575.775 281.8 573.015 285.4 568.215 285.4C563.895 285.4 561.615 282.16 559.575 278.44C554.295 270.28 545.175 262.36 534.135 262.36C515.055 262.36 502.215 280.72 502.215 303.88C502.215 332.32 519.615 348.88 540.735 348.88C559.095 348.88 573.975 336.04 577.455 314.68H579.495C575.775 342.28 555.375 357.04 532.575 357.04Z" fill="white"/>
<rect x="227.5" y="206.5" width="389.283" height="193" stroke="white" stroke-width="13"/>
</svg>
